<svg width="17" height="20" viewBox="0 0 17 20" fill="none" xmlns="http://www.w3.org/2000/svg">
<path d="M8.5 19V11M8.5 19L1.8906 14.5937C1.45463 14.3031 1.23665 14.1578 1.11833 13.9367C1 13.7156 1 13.4536 1 12.9296V6M8.5 19L15.1094 14.5937C15.5454 14.3031 15.7633 14.1578 15.8817 13.9367C16 13.7156 16 13.4536 16 12.9296V6M8.5 11L1 6M8.5 11L16 6M1 6L7.3906 1.7396C7.92835 1.3811 8.19722 1.20185 8.5 1.20185C8.80278 1.20185 9.07165 1.3811 9.6094 1.7396L16 6" stroke="#ADADAD" stroke-width="2" stroke-linejoin="round"/>
</svg>
