<svg width="20" height="20" viewBox="0 0 20 20" fill="none" xmlns="http://www.w3.org/2000/svg">
<path d="M9.99962 12.5713L9.29251 13.2784L9.99962 13.9855L10.7067 13.2784L9.99962 12.5713ZM10.9996 0.99986C10.9996 0.447575 10.5519 -0.000139885 9.99962 -0.000139909C9.44733 -0.000139933 8.99962 0.447575 8.99962 0.99986L10.9996 0.99986ZM2.86394 6.84982L9.29251 13.2784L10.7067 11.8642L4.27815 5.43561L2.86394 6.84982ZM10.7067 13.2784L17.1353 6.84982L15.7211 5.43561L9.29251 11.8642L10.7067 13.2784ZM10.9996 12.5713L10.9996 0.99986L8.99962 0.99986L8.99962 12.5713L10.9996 12.5713Z" fill="white"/>
<path d="M1 15.1431L1 16.4288C1 17.8489 2.15127 19.0002 3.57143 19.0002L16.4286 19.0002C17.8487 19.0002 19 17.8489 19 16.4288V15.1431" stroke="white" stroke-width="2"/>
</svg>
