<svg width="515" height="515" viewBox="0 0 515 515" fill="none" xmlns="http://www.w3.org/2000/svg">
<rect x="297.447" y="3.49201" width="363.186" height="363.186" rx="87.5" transform="rotate(54 297.447 3.49201)" stroke="white" stroke-opacity="0.2" stroke-width="5"/>
<path d="M235.079 284.587C238.304 273.375 242.922 263.951 248.933 256.315C255.265 248.771 262.121 242.419 269.502 237.258C277.203 232.189 285.086 227.692 293.151 223.769C301.217 219.845 308.709 216.104 315.63 212.545C322.962 208.757 329.219 204.487 334.402 199.734C339.904 195.073 343.669 189.219 345.696 182.172C349.013 170.639 346.879 159.967 339.296 150.155C332.033 140.436 320.553 133.319 304.855 128.804C289.799 124.474 275.423 123.808 261.728 126.806C248.124 129.484 235.866 135.323 224.953 144.324L176.622 93.4848C195.056 77.6289 217.304 67.2054 243.365 62.2144C269.519 56.903 298.773 58.9 331.128 68.2054C355.155 75.1154 375.284 84.72 391.517 97.0192C407.842 108.998 419.241 123.029 425.715 139.111C432.509 155.286 433.142 172.984 427.614 192.205C424.021 204.698 418.92 215.197 412.312 223.702C405.704 232.207 398.343 239.108 390.229 244.405C382.116 249.702 373.66 254.381 364.862 258.44C356.384 262.592 348.273 266.676 340.528 270.692C332.783 274.707 325.907 279.32 319.899 284.529C314.213 289.83 310.125 296.806 307.638 305.455L235.079 284.587ZM236.911 415.701C223.456 411.831 213.648 404.328 207.486 393.191C201.324 382.054 199.948 370.559 203.357 358.706C206.858 346.533 214.085 337.686 225.037 332.165C236.082 326.324 248.332 325.338 261.786 329.207C275.561 333.169 285.416 340.512 291.349 351.237C297.695 361.733 299.118 373.068 295.617 385.241C292.208 397.094 284.935 406.101 273.798 412.263C262.981 418.517 250.686 419.663 236.911 415.701Z" fill="white"/>
</svg>
