<svg width="236" height="180" viewBox="0 0 236 180" fill="none" xmlns="http://www.w3.org/2000/svg">
<path d="M157.26 122.782C145.375 122.004 136.031 112.181 136.031 100.173C136.031 99.7721 136.039 99.3713 136.063 98.9705V99.0255C136.039 98.6483 136.023 98.2083 136.023 97.7603C136.023 85.776 145.383 75.9843 157.197 75.2691H157.26C169.129 75.9135 178.504 85.6817 178.504 97.6424C178.504 98.1297 178.489 98.609 178.457 99.0884V99.0255C178.481 99.4185 178.496 99.8821 178.496 100.346C178.496 112.314 169.129 122.098 157.315 122.774H157.252L157.26 122.782ZM78.8738 122.782C66.9892 122.004 57.6452 112.181 57.6452 100.173C57.6452 99.7721 57.6531 99.3713 57.6767 98.9705V99.0255C57.6531 98.6483 57.6373 98.2083 57.6373 97.7603C57.6373 85.776 66.9971 75.9843 78.8109 75.2691H78.8738C90.7426 75.9135 100.118 85.6817 100.118 97.6424C100.118 98.1297 100.102 98.609 100.071 99.0884V99.0255C100.095 99.4027 100.11 99.8428 100.11 100.291C100.11 112.275 90.7505 122.067 78.9367 122.782H78.8738ZM199.741 15.1356C185.874 8.59725 169.766 3.42632 152.903 0.432219L151.731 0.259332C151.691 0.251473 151.644 0.243616 151.597 0.243616C151.322 0.243616 151.086 0.392928 150.96 0.612967C149.119 3.84283 147.121 7.87426 145.32 12.0079L144.982 12.8802C136.881 11.5835 127.537 10.8448 118.02 10.8448C108.503 10.8448 99.1585 11.5835 90.0426 13.0059L91.0572 12.8723C88.9336 7.92141 86.9043 3.89784 84.6627 0L84.9852 0.605109C84.8515 0.377211 84.6076 0.235754 84.3323 0.235754C84.293 0.235754 84.2458 0.235757 84.2065 0.243616C66.1712 3.41061 50.063 8.57367 35.0087 15.6228L36.1964 15.1198C36.0627 15.1749 35.9525 15.2692 35.8818 15.387C13.434 47.1434 0 86.6562 0 129.305C0 136.432 0.377537 143.466 1.10902 150.397L1.03823 149.532C1.06182 149.76 1.1798 149.949 1.34498 150.083C18.1768 162.664 37.7458 172.802 58.8643 179.458L60.2486 179.835C60.3115 179.859 60.3902 179.866 60.4688 179.866C60.7205 179.866 60.9408 179.749 61.0745 179.568C65.2824 173.91 69.2859 167.497 72.7545 160.77L73.1242 159.984C73.1714 159.89 73.2029 159.772 73.2029 159.646C73.2029 159.324 72.9984 159.057 72.7152 158.947H72.7073C65.5341 156.181 59.47 153.234 53.6968 149.855L54.3024 150.185C54.0743 150.051 53.9249 149.807 53.9249 149.532C53.9249 149.289 54.0429 149.069 54.2238 148.935C55.4586 148.008 56.7014 147.049 57.8812 146.075C58.007 145.973 58.1722 145.91 58.3452 145.91C58.4553 145.91 58.5576 145.933 58.6441 145.972H58.6362C76.0029 154.31 96.3899 159.183 117.91 159.183C139.429 159.183 159.824 154.31 178.024 145.611L177.183 145.972C177.277 145.925 177.38 145.902 177.497 145.902C177.671 145.902 177.836 145.965 177.962 146.067C179.141 147.041 180.376 148.016 181.627 148.935C181.808 149.077 181.926 149.297 181.926 149.54C181.926 149.815 181.776 150.051 181.564 150.185C176.365 153.289 170.301 156.228 163.985 158.656L163.159 158.939C162.876 159.049 162.671 159.324 162.671 159.639C162.671 159.764 162.703 159.882 162.758 159.984C166.698 167.528 170.694 173.925 175.114 180L174.8 179.552C174.933 179.741 175.161 179.866 175.405 179.866C175.484 179.866 175.563 179.851 175.633 179.835C198.168 172.825 217.768 162.688 235.135 149.721L234.624 150.09C234.797 149.965 234.907 149.768 234.93 149.548C235.615 143.387 236 136.236 236 128.998C236 86.444 222.535 47.0334 199.638 14.7819L200.047 15.3949C199.985 15.2692 199.874 15.167 199.749 15.112L199.741 15.1356Z" fill="white"/>
</svg>
