<svg width="21" height="15" viewBox="0 0 21 15" fill="none" xmlns="http://www.w3.org/2000/svg">
<path fill-rule="evenodd" clip-rule="evenodd" d="M0.674654 5.76384C2.12677 3.54849 5.2579 0 10.4167 0C15.5756 0 18.7067 3.54849 20.1588 5.76384C20.6221 6.47053 20.8537 6.82387 20.8321 7.45776C20.8106 8.09166 20.5449 8.44247 20.0135 9.14408C18.3417 11.3516 14.9004 15 10.4167 15C5.93309 15 2.49182 11.3516 0.819958 9.14408C0.288603 8.44247 0.0229258 8.09166 0.00137731 7.45776C-0.0201712 6.82387 0.211437 6.47052 0.674654 5.76384ZM10.4166 11.7853C12.7835 11.7853 14.7023 9.86652 14.7023 7.49958C14.7023 5.13265 12.7835 3.21387 10.4166 3.21387C8.04964 3.21387 6.13086 5.13265 6.13086 7.49958C6.13086 9.86652 8.04964 11.7853 10.4166 11.7853Z" fill="white"/>
</svg>
