<svg width="20" height="18" viewBox="0 0 20 18" fill="none" xmlns="http://www.w3.org/2000/svg">
<path d="M2.99264 10.1211L9.41086 16.4217C9.63457 16.6413 9.74644 16.7511 9.87784 16.7842C9.95803 16.8044 10.042 16.8044 10.1222 16.7842C10.2536 16.7511 10.3654 16.6413 10.5891 16.4217L17.0074 10.1211C18.7227 8.43726 18.933 5.74618 17.5001 3.81628L17.112 3.29353C15.3454 0.914073 11.674 1.30141 10.4428 3.99714C10.2695 4.37656 9.73049 4.37656 9.5572 3.99714C8.326 1.30141 4.65462 0.914073 2.88799 3.29353L2.49988 3.81628C1.06702 5.74618 1.27735 8.43727 2.99264 10.1211Z" fill="white" stroke="white" stroke-width="2"/>
</svg>
